<?xml version="1.0" encoding="utf-8"?>
<!-- Generator: Adobe Illustrator 24.2.3, SVG Export Plug-In . SVG Version: 6.00 Build 0)  -->
<svg version="1.1" id="Layer_1" xmlns="http://www.w3.org/2000/svg" xmlns:xlink="http://www.w3.org/1999/xlink" x="0px" y="0px"
	 viewBox="0 0 50 50" style="enable-background:new 0 0 50 50;" xml:space="preserve">
<style type="text/css">
	.st0{fill:#1F2626;}
</style>
<g>
	<polygon class="st0" points="42.43,25.36 39.87,25.36 39.87,21.52 39.87,21.5 39.87,19.25 33.75,19.25 33.75,21.52 37.6,21.52 
		37.6,37.02 9.84,37.02 9.84,21.52 18.38,21.52 18.38,19.25 7.57,19.25 7.57,21.5 7.57,21.52 7.57,37.02 7.57,37.02 7.57,39.29 
		7.57,39.29 9.84,39.29 37.6,39.29 39.87,39.29 39.87,37.02 39.87,33.18 42.43,33.18 	"/>
	<path class="st0" d="M30.42,16.85v-1.96l-5.41,0l0-2.87c0,0,0.13-1.3-1.6-1.3c-1.73,0-1.6,1.3-1.6,1.3l0,15.78
		c-0.82,0.53-1.36,1.44-1.36,2.49c0,1.64,1.33,2.96,2.96,2.96c1.64,0,2.96-1.33,2.96-2.96c0-1.04-0.54-1.96-1.36-2.49l0-2.2l5.41,0
		v-1.96l-5.41,0l0-2.41l5.41,0l0-1.96l-5.41,0l0-2.41L30.42,16.85z"/>
</g>
</svg>
