<?xml version="1.0" encoding="utf-8"?>
<!-- Generator: Adobe Illustrator 24.2.3, SVG Export Plug-In . SVG Version: 6.00 Build 0)  -->
<svg version="1.1" id="Layer_1" xmlns="http://www.w3.org/2000/svg" xmlns:xlink="http://www.w3.org/1999/xlink" x="0px" y="0px"
	 viewBox="0 0 50 50" style="enable-background:new 0 0 50 50;" xml:space="preserve">
<style type="text/css">
	.st0{fill:#1F2626;}
</style>
<g>
	<path class="st0" d="M17.66,46.26c-0.21,0-0.42-0.04-0.61-0.13c-0.59-0.27-0.88-0.89-0.7-1.47l4.79-15.38l-7.88,0.01
		c-0.51,0-0.97-0.25-1.21-0.66c-0.24-0.41-0.21-0.9,0.07-1.29L28.82,4.29c0.36-0.5,1.06-0.69,1.66-0.46
		c0.6,0.23,0.95,0.82,0.81,1.41L27.8,20.9l8.94-0.01c0.52,0,1,0.27,1.23,0.7c0.23,0.43,0.18,0.94-0.14,1.32L18.75,45.77
		C18.48,46.09,18.08,46.26,17.66,46.26z M15.81,26.78l7.14-0.01c0.43,0,0.83,0.18,1.09,0.5c0.26,0.31,0.34,0.72,0.22,1.1L20.96,39
		l13.02-15.6l-7.85,0.01c-0.41,0-0.8-0.17-1.06-0.46c-0.26-0.29-0.36-0.68-0.28-1.05l2.42-10.85L15.81,26.78z"/>
</g>
</svg>
