<?xml version="1.0" encoding="utf-8"?>
<!-- Generator: Adobe Illustrator 24.2.3, SVG Export Plug-In . SVG Version: 6.00 Build 0)  -->
<svg version="1.1" id="Layer_1" xmlns="http://www.w3.org/2000/svg" xmlns:xlink="http://www.w3.org/1999/xlink" x="0px" y="0px"
	 viewBox="0 0 50 50" style="enable-background:new 0 0 50 50;" xml:space="preserve">
<style type="text/css">
	.st0{fill:#1F2626;}
</style>
<path class="st0" d="M41.9,24.41l-6.88-6.88v-5.07c0-2.34-1.9-4.24-4.24-4.24H25h-5.78c-2.34,0-4.24,1.9-4.24,4.24v5.07L8.1,24.41
	c-0.66,0.66-0.66,1.73,0,2.4c0.66,0.66,1.73,0.66,2.4,0l4.48-4.48v15.22c0,2.34,1.9,4.24,4.24,4.24H25h5.78
	c2.34,0,4.24-1.9,4.24-4.24V22.32l4.48,4.48c0.66,0.66,1.73,0.66,2.4,0C42.56,26.14,42.56,25.07,41.9,24.41z M25.19,17.77h7.02
	l-4.28,4.28h-2.74h-2.74l-4.28-4.28H25.19z M17.15,27.82v-7.47l2.81,2.81v4.66v4.66l-2.81,2.81V27.82z M25.19,37.88h-7.02l4.28-4.28
	h2.74h2.74l4.28,4.28H25.19z M33.23,27.82v7.47l-2.81-2.81v-4.66v-4.66l2.81-2.81V27.82z"/>
</svg>
