<?xml version="1.0" encoding="utf-8"?>
<!-- Generator: Adobe Illustrator 24.2.3, SVG Export Plug-In . SVG Version: 6.00 Build 0)  -->
<svg version="1.1" id="Layer_1" xmlns="http://www.w3.org/2000/svg" xmlns:xlink="http://www.w3.org/1999/xlink" x="0px" y="0px"
	 viewBox="0 0 50 50" style="enable-background:new 0 0 50 50;" xml:space="preserve">
<style type="text/css">
	.st0{fill:#1F2626;}
</style>
<g>
	<path class="st0" d="M10.22,27.32c0,1.04,0,2,0,2.96c0,0.52,0.01,1.03,0,1.55c-0.01,0.52-0.31,0.85-0.77,0.86
		c-0.45,0-0.76-0.34-0.77-0.86c0-1.61-0.01-3.22,0-4.84c0-0.27-0.04-0.49-0.27-0.66c-0.17-0.13-0.3-0.31-0.46-0.46
		c-0.26-0.24-0.34-0.53-0.34-0.88c0.01-1.35,0.01-2.69,0-4.04c0-0.39,0.07-0.73,0.39-1c0.27-0.23,0.52-0.5,0.76-0.77
		c0.27-0.29,0.59-0.44,0.97-0.29c0.39,0.15,0.5,0.49,0.49,0.88c0,1.34,0.01,2.67-0.01,4.01c0,0.33,0.09,0.43,0.42,0.43
		c0.84-0.02,0.84,0,0.84-0.84c0-0.9,0-1.8,0-2.71c0.01-1.1,0.79-1.92,1.89-1.96c0.83-0.02,1.66-0.02,2.49,0
		c0.26,0,0.35-0.08,0.37-0.34c0.1-1.06,0.88-1.76,1.96-1.77c0.91,0,1.83-0.01,2.74,0.01c0.34,0.01,0.45-0.11,0.45-0.46
		c-0.02-0.94,0-0.94-0.95-0.94c-0.73,0-1.47,0.01-2.2,0c-0.73-0.01-1.15-0.55-0.96-1.19c0.1-0.36,0.45-0.62,0.88-0.62
		c3.9,0,7.79,0.01,11.69,0.01c0.54,0,0.9,0.36,0.91,0.86c0.01,0.53-0.37,0.92-0.94,0.93c-0.91,0.02-1.83,0.01-2.74,0.01
		c-0.46,0-0.46,0-0.46,0.48c0,0.91,0,0.91,0.91,0.91c0.73,0,1.47,0,2.2,0c1.21,0,2.01,0.78,2.04,1.99c0.01,0.37,0,0.74,0,1.15
		c0.65,0,1.25,0,1.84,0c0.78,0,1.47,0.25,1.85,0.96c0.19,0.34,0.28,0.77,0.3,1.16c0.04,0.85,0.02,1.71,0.01,2.56
		c0,0.27,0.08,0.36,0.35,0.35c0.9-0.02,0.77,0.12,0.77-0.75c0.01-1.38,0.77-2.16,2.14-2.14c0.55,0.01,1.11,0.01,1.63,0.16
		c0.75,0.21,1.22,0.79,1.34,1.55c0.17,1.05,0.31,2.12,0.35,3.18c0.05,1.28,0.05,2.58-0.04,3.86c-0.06,0.85-0.22,1.72-0.48,2.53
		c-0.26,0.8-0.94,1.19-1.78,1.25c-0.44,0.03-0.89,0.03-1.33,0.01c-1.06-0.05-1.83-0.88-1.83-1.94c0-0.04,0-0.07,0-0.11
		c-0.03-0.98,0.15-0.81-0.84-0.83c-0.22-0.01-0.29,0.07-0.28,0.29c0.01,0.85,0.01,1.71,0.01,2.56c0,1.34-0.81,2.16-2.15,2.17
		c-3.86,0-7.72,0-11.58,0c-1.03,0-1.92-0.35-2.65-1.1c-0.78-0.8-1.58-1.58-2.37-2.38c-0.19-0.19-0.39-0.28-0.67-0.27
		c-0.94,0.01-1.88,0.01-2.81,0c-1.28-0.01-2.05-0.81-2.06-2.09c0-1.01-0.01-2.02,0-3.03c0-0.3-0.1-0.41-0.39-0.39
		C10.82,27.33,10.54,27.32,10.22,27.32z M27.73,34.79c1.92,0,3.85-0.01,5.77,0.01c0.36,0,0.49-0.11,0.48-0.48
		c-0.03-0.99-0.01-1.97-0.03-2.96c-0.02-0.96,0.6-1.59,1.56-1.59c0.59,0,1.18-0.01,1.77,0c0.79,0.02,1.38,0.63,1.39,1.41
		c0,0.13,0,0.26,0,0.4c0,1.11,0,1.1,1.12,1.08c0.29-0.01,0.46-0.13,0.49-0.41c0.11-0.87,0.25-1.74,0.29-2.61
		c0.05-0.92,0.03-1.85,0-2.78c-0.02-0.71-0.06-1.42-0.18-2.11c-0.21-1.16,0.05-1.08-1.38-1.07c-0.27,0-0.36,0.13-0.35,0.38
		c0.01,0.34,0,0.67,0,1.01c0,0.92-0.57,1.49-1.48,1.5c-0.57,0.01-1.13,0-1.7,0c-0.97-0.01-1.52-0.55-1.52-1.53c-0.01-1,0-2,0-3
		c0-0.46-0.01-0.47-0.46-0.47c-0.69,0-1.37,0-2.06,0c-0.89-0.01-1.49-0.62-1.49-1.51c0-0.45-0.01-0.89,0-1.34
		c0.01-0.24-0.08-0.36-0.33-0.35c-0.26,0.01-0.53-0.01-0.79-0.01c-3.37,0-6.74,0.01-10.1,0.01c-0.7,0-0.7,0-0.73,0.7
		c-0.03,0.82-0.61,1.4-1.43,1.41c-0.97,0.01-1.95,0.01-2.92,0c-0.29,0-0.4,0.08-0.4,0.39c0.01,3.25,0.01,6.5,0,9.74
		c0,0.31,0.1,0.42,0.41,0.42c0.9-0.02,1.8,0.02,2.71-0.01c0.75-0.02,1.35,0.23,1.87,0.76c0.77,0.79,1.57,1.56,2.34,2.35
		c0.43,0.44,0.93,0.65,1.55,0.64C24,34.78,25.86,34.79,27.73,34.79z"/>
</g>
</svg>
