<?xml version="1.0" encoding="utf-8"?>
<!-- Generator: Adobe Illustrator 24.2.3, SVG Export Plug-In . SVG Version: 6.00 Build 0)  -->
<svg version="1.1" id="Layer_1" xmlns="http://www.w3.org/2000/svg" xmlns:xlink="http://www.w3.org/1999/xlink" x="0px" y="0px"
	 viewBox="0 0 50 50" style="enable-background:new 0 0 50 50;" xml:space="preserve">
<style type="text/css">
	.st0{fill:#1F2626;}
</style>
<g>
	<path class="st0" d="M24.83,12.38l0.57,0.08c0.69,0.09,16.99,2.39,16.99,12.55c0,10.16-16.3,12.45-16.99,12.55l-0.57,0.08
		l-0.39-0.42c-0.13-0.14-3.11-3.46-3.11-12.2c0-8.74,2.99-12.06,3.11-12.2L24.83,12.38z M25.75,35.25
		c2.88-0.51,14.43-3.01,14.43-10.25c0-7.24-11.55-9.74-14.43-10.25c-0.68,1.09-2.21,4.19-2.21,10.25
		C23.54,31.06,25.07,34.17,25.75,35.25z"/>
	<path class="st0" d="M8.14,19.64c-0.29,0-0.53-0.24-0.53-0.53v-1.16c0-0.29,0.24-0.53,0.53-0.53h2.65
		c0.16-3.15,1.15-5.26,1.22-5.41l0.1-0.21h2.88l-0.26,0.53c-0.02,0.03-0.96,2.05-1.13,5.08h7.01c-0.14,0.5-0.27,1.05-0.39,1.64h0.01
		c-0.04,0.18-0.07,0.38-0.1,0.57h-6.5c0.11,1.32,0.39,2.75,0.94,4.26h5.13c0,0.06-0.01,0.11-0.01,0.17h0.01
		c-0.01,0.31-0.02,0.61-0.02,0.94c0,0.38,0.01,0.75,0.02,1.11h-4.27c0.53,1.51,0.79,2.94,0.9,4.26h3.79
		c0.05,0.31,0.11,0.62,0.17,0.91H20.3c0.08,0.38,0.17,0.73,0.26,1.07c0,0,0,0,0,0c0.02,0.08,0.04,0.16,0.07,0.24H16.4
		c-0.15,3.15-1.11,5.26-1.18,5.4l-0.1,0.21h-2.3h-0.58l0.25-0.53c0.02-0.03,0.94-2.06,1.09-5.09H8.14c-0.29,0-0.53-0.24-0.53-0.53
		v-1.16c0-0.29,0.24-0.53,0.53-0.53h5.4c-0.11-1.32-0.39-2.76-0.94-4.26H8.14c-0.29,0-0.53-0.24-0.53-0.53v-1.16
		c0-0.29,0.24-0.53,0.53-0.53h3.59c-0.53-1.51-0.79-2.94-0.9-4.26H8.14z"/>
</g>
</svg>
