<?xml version="1.0" encoding="utf-8"?>
<!-- Generator: Adobe Illustrator 24.2.3, SVG Export Plug-In . SVG Version: 6.00 Build 0)  -->
<svg version="1.1" id="Layer_1" xmlns="http://www.w3.org/2000/svg" xmlns:xlink="http://www.w3.org/1999/xlink" x="0px" y="0px"
	 viewBox="0 0 50 50" style="enable-background:new 0 0 50 50;" xml:space="preserve">
<style type="text/css">
	.st0{fill:#1F2626;}
</style>
<g>
	<g>
		<g>
			<path class="st0" d="M24.88,36.73l-0.39-0.42c-0.13-0.14-3.11-3.45-3.11-12.17c0-8.71,2.98-12.03,3.11-12.17l0.39-0.42l0.57,0.08
				c0.69,0.09,16.94,2.38,16.94,12.51c0,10.13-16.25,12.42-16.94,12.51L24.88,36.73z M25.8,13.93c-0.68,1.08-2.2,4.17-2.2,10.22
				c0,6.04,1.52,9.13,2.2,10.22c2.87-0.51,14.39-3,14.39-10.22C40.18,16.93,28.67,14.44,25.8,13.93z"/>
		</g>
	</g>
	<g>
		<g>
			<path class="st0" d="M21.63,28.28c0,0.01,0,0.02,0,0.03L21.63,28.28L21.63,28.28z"/>
		</g>
	</g>
	<g>
		<path class="st0" d="M21.04,15.38c0.25-0.71,0.5-1.3,0.75-1.78L8.06,16.7c-0.26,0.06-0.45,0.29-0.45,0.56v1.09
			c0,0.37,0.34,0.64,0.7,0.56l12.49-2.82C20.88,15.84,20.95,15.6,21.04,15.38L21.04,15.38z"/>
	</g>
	<g>
		<path class="st0" d="M19.96,20.36c0.06-0.54,0.13-1.03,0.22-1.51L8.06,21.58c-0.26,0.06-0.45,0.29-0.45,0.56v1.09
			c0,0.37,0.34,0.64,0.7,0.56l11.57-2.61C19.9,20.9,19.92,20.62,19.96,20.36L19.96,20.36z"/>
	</g>
	<g>
		<path class="st0" d="M20.37,30.32c-0.11-0.52-0.21-1.09-0.29-1.69L8.06,31.34c-0.26,0.06-0.45,0.29-0.45,0.56v1.09
			c0,0.37,0.34,0.64,0.7,0.56l12.17-2.74c-0.04-0.16-0.08-0.31-0.12-0.48H20.37z"/>
	</g>
	<g>
		<path class="st0" d="M19.79,25.69c0-0.01,0-0.02,0-0.04c0-0.11-0.01-0.2-0.02-0.31h0.01c-0.01-0.41-0.03-0.83-0.03-1.27
			c0-0.09,0-0.16,0.01-0.25L8.06,26.46c-0.26,0.06-0.45,0.29-0.45,0.56v1.09c0,0.37,0.34,0.64,0.7,0.56l11.51-2.59
			C19.81,25.94,19.8,25.82,19.79,25.69C19.79,25.69,19.79,25.69,19.79,25.69z"/>
	</g>
	<g>
		<path class="st0" d="M20.64,33.38C20.64,33.38,20.64,33.38,20.64,33.38l-0.07,0.01h0L8.06,36.22c-0.26,0.06-0.45,0.29-0.45,0.56
			v1.09c0,0.37,0.34,0.64,0.7,0.56l13.11-2.96l0.78-0.18c-0.29-0.47-0.63-1.15-0.97-2.03L20.64,33.38z"/>
	</g>
	<g>
		<polygon class="st0" points="19.77,23.96 19.77,23.95 19.77,23.94 		"/>
	</g>
</g>
</svg>
