<?xml version="1.0" encoding="utf-8"?>
<!-- Generator: Adobe Illustrator 24.2.3, SVG Export Plug-In . SVG Version: 6.00 Build 0)  -->
<svg version="1.1" id="Layer_1" xmlns="http://www.w3.org/2000/svg" xmlns:xlink="http://www.w3.org/1999/xlink" x="0px" y="0px"
	 viewBox="0 0 50 50" style="enable-background:new 0 0 50 50;" xml:space="preserve">
<style type="text/css">
	.st0{fill:#1F2626;}
</style>
<g>
	<path class="st0" d="M32.03,18.56V16.6h-5.4v-2.87c0,0,0.13-1.3-1.6-1.3s-1.6,1.3-1.6,1.3v15.76c-0.82,0.53-1.36,1.44-1.36,2.49
		c0,1.63,1.32,2.96,2.96,2.96c1.63,0,2.96-1.32,2.96-2.96c0-1.04-0.54-1.96-1.36-2.49v-2.2h5.4v-1.96h-5.4v-2.41h5.4v-1.96h-5.4
		v-2.41L32.03,18.56z"/>
	<g>
		<path class="st0" d="M18.31,33.16c-0.75,0-1.82-0.25-2.8-1.37c-1.3-1.48-2.23-1.52-2.31-1.52l0,0h-0.03h-0.01
			c-1.21,0-2.2,0.76-2.21,0.76l-0.53-0.68c0.05-0.04,1.22-0.94,2.72-0.94c0.23-0.01,1.44,0.01,3.01,1.81
			c1.34,1.53,2.84,0.98,2.85,0.98h0.01c0,0,0.55-0.2,1.11-0.69l0.56,0.65c-0.67,0.57-1.32,0.82-1.38,0.84
			C19.25,33.02,18.87,33.16,18.31,33.16z"/>
	</g>
	<g>
		<path class="st0" d="M31.69,33.16c-0.55,0-0.94-0.14-1-0.16s-0.71-0.27-1.38-0.84l0.56-0.65c0.56,0.48,1.11,0.69,1.11,0.69h0.01
			c0.06,0.02,1.52,0.54,2.85-0.98c1.57-1.8,2.78-1.82,3.01-1.81c1.5,0.01,2.67,0.91,2.72,0.94l-0.53,0.68l0.26-0.34l-0.26,0.34
			c-0.01-0.01-1-0.76-2.21-0.76h-0.04c-0.09,0-1.01,0.04-2.31,1.52C33.51,32.91,32.44,33.16,31.69,33.16z"/>
	</g>
	<g>
		<path class="st0" d="M35.9,37.56c-0.75,0-1.82-0.25-2.8-1.37c-1.3-1.48-2.23-1.52-2.31-1.52l0,0h-0.03h-0.01l0,0
			c-1.38,0-2.17,0.87-2.2,0.91l-0.02,0.02l-0.02,0.02l-1.1,0.94c-0.66,0.57-1.31,0.82-1.38,0.84c-0.13,0.05-2.09,0.73-3.8-1.21
			c-1.3-1.48-2.23-1.52-2.31-1.52l0,0h-0.03h-0.01l0,0c-1.39,0-2.19,0.9-2.2,0.91l-0.02,0.02l-1.12,0.96
			c-0.67,0.57-1.32,0.82-1.38,0.84c-0.13,0.05-1.84,0.64-3.46-0.86l0.58-0.63c1.24,1.15,2.52,0.7,2.57,0.68
			c0.01,0,0.56-0.21,1.12-0.69l1.08-0.92c0.17-0.18,1.17-1.17,2.81-1.17c0.23-0.01,1.44,0.01,3.01,1.81c1.33,1.51,2.79,1,2.85,0.98
			c0.01,0,0.56-0.21,1.12-0.69l1.08-0.92c0.17-0.18,1.17-1.17,2.81-1.17c0.23-0.01,1.44,0.01,3.01,1.81c1.33,1.51,2.79,1,2.85,0.98
			c0.01,0,0.56-0.21,1.12-0.69l0.56,0.65c-0.67,0.57-1.31,0.82-1.38,0.84C36.84,37.43,36.45,37.56,35.9,37.56z"/>
	</g>
</g>
</svg>
