<?xml version="1.0" encoding="utf-8"?>
<!-- Generator: Adobe Illustrator 24.2.3, SVG Export Plug-In . SVG Version: 6.00 Build 0)  -->
<svg version="1.1" id="Layer_1" xmlns="http://www.w3.org/2000/svg" xmlns:xlink="http://www.w3.org/1999/xlink" x="0px" y="0px"
	 viewBox="0 0 50 50" style="enable-background:new 0 0 50 50;" xml:space="preserve">
<style type="text/css">
	.st0{fill:#1F2626;}
</style>
<g>
	<g>
		<path class="st0" d="M24.99,38.46c-7.42,0-13.46-6.04-13.46-13.46s6.04-13.46,13.46-13.46S38.44,17.58,38.44,25
			S32.41,38.46,24.99,38.46z M24.99,13.78c-6.19,0-11.22,5.04-11.22,11.22s5.04,11.22,11.22,11.22S36.21,31.19,36.21,25
			S31.18,13.78,24.99,13.78z"/>
	</g>
	<g>
		<g>
			<g>
				<path class="st0" d="M36.22,38.19l-1.44-1.71c3.4-2.86,5.35-7.05,5.35-11.49c0-4.44-1.95-8.62-5.34-11.48l1.44-1.71
					c3.9,3.29,6.14,8.09,6.14,13.19C42.37,30.1,40.13,34.91,36.22,38.19z"/>
			</g>
		</g>
		<g>
			<g>
				<path class="st0" d="M13.76,38.19C9.85,34.91,7.61,30.1,7.61,25c0-5.09,2.24-9.9,6.14-13.19l1.44,1.71
					c-3.4,2.86-5.34,7.04-5.34,11.48c0,4.44,1.95,8.63,5.35,11.49L13.76,38.19z"/>
			</g>
		</g>
	</g>
	<g>
		<g>
			<path class="st0" d="M21.82,27.05v5.89h-2.76V17.07h6.07c1.77,0,3.18,0.46,4.22,1.39c1.04,0.92,1.56,2.15,1.56,3.67
				c0,1.56-0.51,2.77-1.53,3.63s-2.45,1.3-4.29,1.3H21.82z M21.82,24.83h3.31c0.98,0,1.73-0.23,2.25-0.69
				c0.52-0.46,0.77-1.13,0.77-2c0-0.86-0.26-1.54-0.78-2.05c-0.52-0.51-1.24-0.78-2.16-0.79h-3.39V24.83z"/>
		</g>
	</g>
</g>
</svg>
