<?xml version="1.0" encoding="utf-8"?>
<!-- Generator: Adobe Illustrator 24.2.3, SVG Export Plug-In . SVG Version: 6.00 Build 0)  -->
<svg version="1.1" id="Layer_1" xmlns="http://www.w3.org/2000/svg" xmlns:xlink="http://www.w3.org/1999/xlink" x="0px" y="0px"
	 viewBox="0 0 50 50" style="enable-background:new 0 0 50 50;" xml:space="preserve">
<style type="text/css">
	.st0{fill:#1F2626;}
</style>
<g>
	<g>
		<g>
			<path class="st0" d="M23.85,31.61c0-0.41,0.13-0.75,0.4-1.03c0.27-0.27,0.64-0.41,1.1-0.41c0.47,0,0.83,0.14,1.1,0.41
				c0.27,0.27,0.4,0.61,0.4,1.03c0,0.4-0.13,0.73-0.39,1c-0.26,0.27-0.63,0.4-1.11,0.4c-0.48,0-0.85-0.13-1.11-0.4
				C23.98,32.35,23.85,32.01,23.85,31.61z M26.45,28.2h-2.28l-0.25-11.21h2.79L26.45,28.2z"/>
		</g>
	</g>
	<g>
		<g>
			<path class="st0" d="M25,38.47c-7.43,0-13.47-6.04-13.47-13.47S17.58,11.53,25,11.53S38.47,17.57,38.47,25S32.43,38.47,25,38.47z
				 M25,13.77c-6.19,0-11.23,5.04-11.23,11.23S18.81,36.23,25,36.23S36.23,31.19,36.23,25S31.19,13.77,25,13.77z"/>
		</g>
		<g>
			<g>
				<g>
					<path class="st0" d="M36.24,38.2l-1.44-1.71c3.4-2.86,5.36-7.05,5.36-11.5c0-4.44-1.95-8.63-5.35-11.49l1.44-1.71
						c3.9,3.29,6.14,8.1,6.14,13.2C42.39,30.1,40.15,34.91,36.24,38.2z"/>
				</g>
			</g>
			<g>
				<g>
					<path class="st0" d="M13.76,38.2C9.85,34.91,7.61,30.1,7.61,25c0-5.1,2.24-9.91,6.14-13.2l1.44,1.71
						c-3.4,2.86-5.35,7.05-5.35,11.49c0,4.44,1.95,8.63,5.36,11.5L13.76,38.2z"/>
				</g>
			</g>
		</g>
	</g>
</g>
</svg>
