<?xml version="1.0" encoding="utf-8"?>
<!-- Generator: Adobe Illustrator 24.2.3, SVG Export Plug-In . SVG Version: 6.00 Build 0)  -->
<svg version="1.1" id="Layer_1" xmlns="http://www.w3.org/2000/svg" xmlns:xlink="http://www.w3.org/1999/xlink" x="0px" y="0px"
	 viewBox="0 0 50 50" style="enable-background:new 0 0 50 50;" xml:space="preserve">
<style type="text/css">
	.st0{fill:#1F2626;}
</style>
<g>
	<path class="st0" d="M15.89,34.84c1.12,6.74,4.11,11.42,4.11,11.42h3.57l-2.76-6.71c0,0-1.25-2.93,0.79-2.93h2.92h2.92
		c2.04,0,0.79,2.93,0.79,2.93l-2.76,6.71h3.57c0,0,2.95-4.62,4.09-11.28C25.78,31.75,19.9,32.91,15.89,34.84z"/>
	<path class="st0" d="M26.17,14.5v-1.74c0,0,2.19-0.57,2.19-4.23c0-4.93-3.83-4.79-3.83-4.79S20.7,3.59,20.7,8.53
		c0,3.65,2.19,4.23,2.19,4.23v1.74c-4.16,0-5.39,2.89-5.39,2.89s-1.74,2.81-1.98,10.7l11.57-13.53
		C26.79,14.52,26.49,14.5,26.17,14.5z"/>
	<path class="st0" d="M16.95,31.06c5.88-2.69,11.87-1.45,16.57,0.6c0.03-0.58,0.05-1.16,0.05-1.76c0-9.29-2.01-12.51-2.01-12.51
		s-0.39-0.91-1.46-1.7L16.95,31.06L16.95,31.06z"/>
	<path class="st0" d="M35.84,8.98L35.84,8.98l-2.27-2.01l-6.49,7.59c1.34,0.15,2.33,0.61,3.02,1.13L35.84,8.98z"/>
	<path class="st0" d="M42.39,37.27c0,0-3.62-3.32-8.88-5.62c-0.07,1.16-0.21,2.27-0.39,3.33c2.27,1,4.67,2.4,7.21,4.34L42.39,37.27z
		"/>
	<path class="st0" d="M15.51,28.08l-7.9,9.24v0l2.27,2.01l0.07-0.08c0.37-0.43,2.45-2.71,5.95-4.41c-0.26-1.55-0.42-3.21-0.42-4.94
		C15.48,29.26,15.49,28.66,15.51,28.08z"/>
</g>
</svg>
