<?xml version="1.0" encoding="utf-8"?>
<!-- Generator: Adobe Illustrator 24.2.3, SVG Export Plug-In . SVG Version: 6.00 Build 0)  -->
<svg version="1.1" id="Layer_1" xmlns="http://www.w3.org/2000/svg" xmlns:xlink="http://www.w3.org/1999/xlink" x="0px" y="0px"
	 viewBox="0 0 750 720" style="enable-background:new 0 0 750 720;" xml:space="preserve">
<style type="text/css">
	.st0{fill:url(#SVGID_1_);}
</style>
<g>
	<linearGradient id="SVGID_1_" gradientUnits="userSpaceOnUse" x1="7.5464" y1="360.0266" x2="742.4531" y2="360.0266">
		<stop  offset="0" style="stop-color:#000000"/>
		<stop  offset="0.5" style="stop-color:#434D4F"/>
		<stop  offset="1" style="stop-color:#000000"/>
	</linearGradient>
	<path class="st0" d="M697.91,440.63c-0.56-14.61-8.6-30.22-23.9-46.41c-0.24-0.26-0.49-0.51-0.73-0.76l-0.43-0.45
		c-11.94-12.33-26.13-22.56-42.17-30.42l-93.17-45.61l-30.5-14.21c-0.24-0.12-21.25-11.27-28.68-11.27H271.69
		c-7.43,0-28.45,11.14-28.66,11.25l-30.54,14.23l-93.17,45.6c-16.05,7.86-30.24,18.09-42.17,30.42l-0.41,0.43
		c-0.25,0.26-0.51,0.52-0.75,0.78c-15.3,16.18-23.34,31.8-23.9,46.41l-0.02,0.53l-0.53-0.06c-0.31-0.03-31.21-3.33-43.51-4.76
		l-0.48-0.06l0.04-0.48c0.02-0.21,1.75-20.96,21.9-43.48c10.97-12.26,25.35-22.84,42.75-31.45c24.4-12.08,55.1-27.15,91.25-44.79
		l68.14-25.55c0.19-0.1,23.94-11.65,39.77-11.65h207.24c15.83,0,39.57,11.55,39.81,11.67l68.05,25.51
		c36.22,17.68,66.92,32.75,91.29,44.81c17.4,8.61,31.78,19.19,42.75,31.45c20.15,22.52,21.88,43.27,21.9,43.48l0.03,0.48l-0.48,0.06
		c-12.3,1.43-43.2,4.73-43.51,4.76l-0.53,0.06L697.91,440.63z"/>
	<path d="M478.62,279.39c15.9,0,39.59,11.62,39.59,11.62l68.09,25.53c27.79,13.57,62.03,30.33,91.25,44.79
		c19.5,9.65,33.1,20.73,42.6,31.34c20.27,22.65,21.77,43.18,21.77,43.18c-12.44,1.45-43.51,4.76-43.51,4.76
		c-0.67-17.47-11.98-33.98-24.03-46.73c-0.39-0.41-0.78-0.81-1.17-1.21c-12.18-12.58-26.58-22.82-42.31-30.52l-93.17-45.61
		l-30.51-14.22c0,0-21.25-11.31-28.89-11.31s-103.31,0-103.31,0s-95.67,0-103.31,0c-7.64,0-28.89,11.31-28.89,11.31l-30.51,14.22
		l-93.17,45.61c-15.74,7.7-30.13,17.94-42.31,30.52c-0.39,0.4-0.79,0.8-1.17,1.21c-12.06,12.75-23.37,29.26-24.03,46.73
		c0,0-31.07-3.31-43.51-4.76c0,0,1.5-20.53,21.77-43.18c9.49-10.61,23.1-21.68,42.6-31.34c29.22-14.46,63.45-31.22,91.25-44.79
		l68.09-25.53c0,0,23.69-11.62,39.59-11.62c15.9,0,103.62,0,103.62,0S462.72,279.39,478.62,279.39 M478.62,278.39H375H271.38
		c-15.76,0-38.51,10.98-39.99,11.7l-68.05,25.51l-0.04,0.02l-0.04,0.02c-36.12,17.63-66.82,32.7-91.25,44.79
		c-17.45,8.64-31.89,19.26-42.9,31.57C8.84,414.65,7.15,434.92,7.08,435.77l-0.07,0.96l0.95,0.11c12.3,1.43,43.21,4.73,43.52,4.76
		l1.06,0.11l0.04-1.07c0.55-14.48,8.55-29.99,23.76-46.08c0.25-0.27,0.51-0.53,0.77-0.8l0.39-0.4
		c11.9-12.29,26.04-22.49,42.04-30.32l93.17-45.61l30.5-14.21l0.02-0.01l0.02-0.01c0.21-0.11,21.11-11.19,28.42-11.19H375h103.31
		c7.31,0,28.21,11.08,28.42,11.19l0.02,0.01l0.02,0.01l30.51,14.22l93.16,45.6c16,7.83,30.14,18.03,42.04,30.32l0.39,0.4
		c0.26,0.26,0.52,0.53,0.77,0.8c15.21,16.09,23.21,31.6,23.76,46.08l0.04,1.07l1.06-0.11c0.31-0.03,31.21-3.33,43.52-4.76l0.95-0.11
		l-0.07-0.96c-0.06-0.85-1.76-21.13-22.03-43.77c-11.01-12.31-25.44-22.93-42.9-31.57c-24.43-12.09-55.13-27.16-91.25-44.79
		l-0.04-0.02l-0.04-0.02l-68.05-25.51C517.13,289.37,494.38,278.39,478.62,278.39L478.62,278.39z"/>
</g>
</svg>
