<?xml version="1.0" encoding="utf-8"?>
<!-- Generator: Adobe Illustrator 24.2.3, SVG Export Plug-In . SVG Version: 6.00 Build 0)  -->
<svg version="1.1" id="Layer_1" xmlns="http://www.w3.org/2000/svg" xmlns:xlink="http://www.w3.org/1999/xlink" x="0px" y="0px"
	 viewBox="0 0 150 720" style="enable-background:new 0 0 150 720;" xml:space="preserve">
<style type="text/css">
	.st0{fill:#1F2626;stroke:#01E193;stroke-width:2;stroke-miterlimit:10;}
</style>
<path class="st0" d="M134.4,322.99C134.4,322.99,134.39,322.99,134.4,322.99c-0.27-0.99-0.59-1.96-0.96-2.9l0,0
	c0,0-0.01-0.02-0.02-0.05l-0.01-0.04c-0.43-1.07-0.95-2.1-1.56-3.07l-0.02-0.04l-0.01,0c-1.08-1.73-2.46-3.28-4.21-4.54
	c-3.34-2.41-8.86-4.28-15.1-5.73c-5.14-1.32-25.2-7.35-49.09-26.17c1.6,1.34,3.22,2.89,4.79,4.69H68.2c0.86,1,1.71,2.06,2.51,3.21
	c0.88,1.26,1.59,2.65,2.16,4.13c3.98,10.24,1.25,24.6,0.81,26.77c0.02,0.1,0.05,0.19,0.07,0.29c0,0-14.9,56.64-21.1,78.88
	c-3.57,12.82-10.64,21.9-15.99,27.3c-3.93,3.97-6.94,5.95-6.94,5.95s-2.48,2.8-15.25,7.88c5.03-0.23,36.78-1.76,59.9-5.16
	c0.01,0,0.02,0,0.03,0c6.36-0.94,12.08-2.02,16.39-3.25l0.01-0.01c21.39-6.13,28.11-31.64,28.11-31.64l15.44-55.8
	C134.35,343.69,136.96,332.63,134.4,322.99z"/>
</svg>
