<?xml version="1.0" encoding="utf-8"?>
<!-- Generator: Adobe Illustrator 24.2.3, SVG Export Plug-In . SVG Version: 6.00 Build 0)  -->
<svg version="1.1" id="Layer_1" xmlns="http://www.w3.org/2000/svg" xmlns:xlink="http://www.w3.org/1999/xlink" x="0px" y="0px"
	 viewBox="0 0 750 720" style="enable-background:new 0 0 750 720;" xml:space="preserve">
<style type="text/css">
	.st0{fill:url(#SVGID_1_);}
</style>
<g>
	
		<linearGradient id="SVGID_1_" gradientUnits="userSpaceOnUse" x1="3574.3337" y1="360" x2="4308.1738" y2="360" gradientTransform="matrix(-1 0 0 1 4316.2534 0)">
		<stop  offset="0" style="stop-color:#0B4E6B"/>
		<stop  offset="0.0974" style="stop-color:#0A587C"/>
		<stop  offset="0.2908" style="stop-color:#0771A9"/>
		<stop  offset="0.5" style="stop-color:#0391E0"/>
		<stop  offset="0.7906" style="stop-color:#086B9E"/>
		<stop  offset="1" style="stop-color:#0B4E6B"/>
	</linearGradient>
	<path class="st0" d="M375,291.01c0,0,95.67,0,103.31,0s28.89,11.31,28.89,11.31l30.51,14.22l93.17,45.61
		c15.74,7.7,30.13,17.94,42.31,30.52c0.39,0.4,0.79,0.8,1.17,1.21c12.06,12.75,23.37,29.26,24.03,46.73c0,0,31.07-3.31,43.51-4.76
		c0,0-1.5-20.53-21.77-43.18c-9.49-10.61-23.1-21.68-42.6-31.34c-29.22-14.46-63.45-31.22-91.25-44.79l-68.09-25.53
		c0,0-23.69-11.62-39.59-11.62c-15.9,0-103.62,0-103.62,0s-87.72,0-103.62,0c-15.9,0-39.59,11.62-39.59,11.62l-68.09,25.53
		c-27.79,13.57-62.03,30.33-91.25,44.79c-19.5,9.65-33.1,20.73-42.6,31.34C9.58,415.32,8.08,435.85,8.08,435.85
		c12.44,1.45,43.51,4.76,43.51,4.76c0.67-17.47,11.98-33.98,24.03-46.73c0.39-0.41,0.78-0.81,1.17-1.21
		c12.18-12.58,26.58-22.82,42.31-30.52l93.17-45.61l30.51-14.22c0,0,21.25-11.31,28.89-11.31S375,291.01,375,291.01z"/>
</g>
</svg>
