<?xml version="1.0" encoding="utf-8"?>
<!-- Generator: Adobe Illustrator 24.2.3, SVG Export Plug-In . SVG Version: 6.00 Build 0)  -->
<svg version="1.1" id="Layer_1" xmlns="http://www.w3.org/2000/svg" xmlns:xlink="http://www.w3.org/1999/xlink" x="0px" y="0px"
	 viewBox="0 0 150 720" style="enable-background:new 0 0 150 720;" xml:space="preserve">
<style type="text/css">
	.st0{fill:#1F2626;}
	.st1{fill:#01E193;}
</style>
<g>
	<path class="st0" d="M13.16,322.75C13.16,322.75,13.16,322.75,13.16,322.75c0.27-0.99,0.59-1.96,0.96-2.9l0,0
		c0,0,0.01-0.02,0.02-0.05l0.01-0.04c0.43-1.07,0.95-2.1,1.56-3.07l0.02-0.04l0.01,0c1.08-1.73,2.46-3.28,4.21-4.54
		c3.34-2.41,8.86-4.28,15.1-5.73c5.14-1.32,25.2-7.35,49.09-26.17c-1.6,1.34-3.22,2.89-4.79,4.69h0.02c-0.86,1-1.71,2.06-2.51,3.21
		c-0.88,1.26-1.59,2.65-2.16,4.13c-3.98,10.24-1.25,24.6-0.81,26.77c-0.02,0.1-0.05,0.19-0.07,0.29c0,0,14.9,56.64,21.1,78.88
		c3.57,12.82,10.64,21.9,15.99,27.3c3.93,3.97,6.94,5.95,6.94,5.95s2.48,2.8,15.25,7.88c-5.03-0.23-36.78-1.76-59.9-5.16
		c-0.01,0-0.02,0-0.03,0c-6.36-0.94-12.08-2.02-16.39-3.25l-0.01-0.01c-21.39-6.13-28.11-31.64-28.11-31.64l-15.44-55.8
		C13.21,343.45,10.6,332.39,13.16,322.75z"/>
	<path class="st1" d="M138.98,440.57l-5.94-0.27c-5.99-0.27-37-1.79-59.93-5.16l-0.1-0.01c-6.92-1.02-12.48-2.12-16.52-3.28
		l-0.12-0.04c-21.6-6.26-28.62-32.05-28.69-32.31l-15.44-55.78c-0.12-0.5-2.65-11.46-0.05-21.22l0.12-0.42
		c0.25-0.9,0.54-1.76,0.87-2.56l0.04-0.13c0.06-0.15,0.12-0.3,0.18-0.44l0.11-0.28l0.01,0c0.38-0.86,0.82-1.69,1.3-2.46l0.19-0.3
		c1.19-1.85,2.65-3.4,4.34-4.62c3.12-2.25,8.33-4.24,15.46-5.89c5.45-1.4,25.12-7.42,48.7-25.98l1.26,1.55
		c-1.47,1.23-2.84,2.54-4.07,3.9l-0.58,0.68c-0.89,1.02-1.71,2.08-2.45,3.13c-0.79,1.12-1.47,2.44-2.05,3.92
		c-3.91,10.07-1.09,24.58-0.76,26.21l0.05,0.23l-0.06,0.26c1.09,4.13,15.12,57.39,21.03,78.62c3.52,12.63,10.5,21.58,15.74,26.86
		c3.8,3.83,6.75,5.8,6.78,5.82l0.2,0.17c0.02,0.02,2.68,2.76,14.87,7.62L138.98,440.57z M73.23,433.14l0.1,0.01
		c18.62,2.74,42.65,4.26,54.13,4.87c-7.4-3.31-9.76-5.33-10.26-5.82c-0.54-0.37-3.38-2.36-7.01-6.02
		c-5.41-5.45-12.61-14.69-16.25-27.74c-6.12-21.99-20.95-78.33-21.1-78.89l-0.06-0.25l0.08-0.32c-0.65-3.22-3.03-16.98,0.9-27.11
		c0.63-1.63,1.4-3.09,2.27-4.34c0.04-0.06,0.09-0.13,0.14-0.19c-19.99,13.88-36,18.75-40.88,20c-6.89,1.6-11.85,3.47-14.76,5.57
		c-1.54,1.11-2.87,2.55-3.94,4.26l-0.02,0.04c-0.55,0.88-1.03,1.83-1.44,2.83l-0.16,0.42c-0.31,0.79-0.58,1.65-0.82,2.53l-0.12,0.44
		c-2.27,9.17,0.14,19.67,0.17,19.78l15.43,55.76c0.07,0.26,6.84,25.05,27.42,30.94l0.12,0.04C61.09,431.08,66.5,432.15,73.23,433.14
		z"/>
</g>
</svg>
