<?xml version="1.0" encoding="utf-8"?>
<!-- Generator: Adobe Illustrator 24.2.3, SVG Export Plug-In . SVG Version: 6.00 Build 0)  -->
<svg version="1.1" id="Layer_1" xmlns="http://www.w3.org/2000/svg" xmlns:xlink="http://www.w3.org/1999/xlink" x="0px" y="0px"
	 viewBox="0 0 300 720" style="enable-background:new 0 0 300 720;" xml:space="preserve">
<style type="text/css">
	.st0{fill:#0B5638;}
	.st1{fill:url(#SVGID_1_);}
	.st2{fill:#0F9662;}
	.st3{fill:url(#SVGID_2_);}
	.st4{fill:#01E193;}
	.st5{fill:url(#SVGID_3_);}
</style>
<g>
	<path class="st0" d="M194.9,168.19L43.41,229.03c0,0-4.14,1.52-9.07,5.2H16.47c4.93-3.68,9.07-5.2,9.07-5.2l151.49-60.84
		c0,0,38.78-18.61,50.31-42.98h0c5.67,0.7,11.24,1.45,16.71,2.26C231.3,150.72,194.9,168.19,194.9,168.19z"/>
	
		<linearGradient id="SVGID_1_" gradientUnits="userSpaceOnUse" x1="552.8135" y1="234.5142" x2="552.8135" y2="239.8719" gradientTransform="matrix(-1 0 0 1 574.8269 0)">
		<stop  offset="5.403334e-03" style="stop-color:#0B5638"/>
		<stop  offset="0.2404" style="stop-color:#0B593A"/>
		<stop  offset="0.4065" style="stop-color:#0A6240"/>
		<stop  offset="0.5514" style="stop-color:#09724A"/>
		<stop  offset="0.6841" style="stop-color:#078859"/>
		<stop  offset="0.8086" style="stop-color:#05A46B"/>
		<stop  offset="0.9252" style="stop-color:#03C782"/>
		<stop  offset="1" style="stop-color:#01E193"/>
	</linearGradient>
	<path class="st1" d="M16.46,234.23h17.86c0,0,0,0,0,0c-2.2,1.64-4.55,3.71-6.77,6.27H10.44H9.7
		C11.91,237.94,14.26,235.87,16.46,234.23z"/>
	<path class="st2" d="M192.85,453.7c8.3,7.59,16.26,15.61,23.8,23.85h0c43.69,47.69,73.76,102.04,80.43,114.57
		c-5.26,0.86-10.75,1.76-16.47,2.67c0,0-32.09-62.94-81.83-117.24c-7.54-8.23-15.5-16.26-23.8-23.85H192.85z"/>
	<path class="st0" d="M93.2,399.17c3.83,1.29,8.17,2.66,13.12,4.13c10.07,2.98,18.39,6.02,25.15,8.83
		c16.61,6.92,23.7,12.49,23.7,12.49c13.21,8.3,25.83,18.25,37.72,29.12h-16.15h-1.71H175c-11.89-10.87-24.5-20.83-37.71-29.12
		c0,0-7.08-5.57-23.7-12.49c-6.75-2.81-15.07-5.85-25.15-8.83c-4.95-1.47-9.29-2.84-13.12-4.13H93.2z"/>
	
		<linearGradient id="SVGID_2_" gradientUnits="userSpaceOnUse" x1="390.9343" y1="446.675" x2="390.9343" y2="461.4016" gradientTransform="matrix(-1 0 0 1 574.8269 0)">
		<stop  offset="5.403334e-03" style="stop-color:#0B5638"/>
		<stop  offset="0.4583" style="stop-color:#0D714A"/>
		<stop  offset="1" style="stop-color:#0F9662"/>
	</linearGradient>
	<path class="st3" d="M184.05,445.95c2.99,2.54,5.95,5.14,8.86,7.8h0.02c2.95,2.69,5.84,5.46,8.69,8.25h-17.87
		c-2.86-2.79-5.75-5.56-8.69-8.25h0h-0.03c-2.91-2.66-5.86-5.26-8.85-7.8H184.05z"/>
	<path class="st4" d="M5.05,247.83c0.57-1.48,1.28-2.87,2.16-4.13c0.8-1.15,1.65-2.21,2.51-3.21h17.87c-0.86,1-1.71,2.06-2.51,3.21
		c-0.88,1.26-1.59,2.65-2.16,4.13c-4.31,11.1-0.74,27.06-0.74,27.06s14.9,56.64,21.1,78.88c3.57,12.82,10.64,21.9,15.99,27.3
		c3.93,3.97,6.94,5.95,6.94,5.95s3.9,4.39,27.01,12.15H75.4h-0.06c-23.11-7.76-27.01-12.15-27.01-12.15s-3.01-1.98-6.94-5.95
		c-5.35-5.4-12.42-14.48-15.99-27.3c-6.19-22.24-21.1-78.88-21.1-78.88S0.74,258.94,5.05,247.83z"/>
	
		<linearGradient id="SVGID_3_" gradientUnits="userSpaceOnUse" x1="502.0475" y1="389.753" x2="502.0475" y2="398.6677" gradientTransform="matrix(-1 0 0 1 574.8269 0)">
		<stop  offset="0" style="stop-color:#01E193"/>
		<stop  offset="0.1608" style="stop-color:#04B777"/>
		<stop  offset="0.3231" style="stop-color:#079461"/>
		<stop  offset="0.4882" style="stop-color:#08794F"/>
		<stop  offset="0.6548" style="stop-color:#0A6542"/>
		<stop  offset="0.8241" style="stop-color:#0B5A3B"/>
		<stop  offset="1" style="stop-color:#0B5638"/>
	</linearGradient>
	<path class="st5" d="M70.22,389.74c3.7,2.07,10.57,5.26,22.99,9.44H75.4h-0.06c-12.43-4.17-19.29-7.37-22.99-9.44H70.22z"/>
</g>
</svg>
