<?xml version="1.0" encoding="utf-8"?>
<!-- Generator: Adobe Illustrator 24.2.3, SVG Export Plug-In . SVG Version: 6.00 Build 0)  -->
<svg version="1.1" id="Layer_1" xmlns="http://www.w3.org/2000/svg" xmlns:xlink="http://www.w3.org/1999/xlink" x="0px" y="0px"
	 viewBox="0 0 450 720" style="enable-background:new 0 0 450 720;" xml:space="preserve">
<style type="text/css">
	.st0{fill:url(#SVGID_1_);}
	.st1{fill:url(#SVGID_2_);}
	.st2{fill:url(#SVGID_3_);}
	.st3{fill:url(#SVGID_4_);}
	.st4{fill:url(#SVGID_5_);}
</style>
<g>
	<linearGradient id="SVGID_1_" gradientUnits="userSpaceOnUse" x1="136.7836" y1="259.6493" x2="136.7836" y2="0.6566">
		<stop  offset="0" style="stop-color:#363F41"/>
		<stop  offset="0.0118" style="stop-color:#2D3436"/>
		<stop  offset="0.0425" style="stop-color:#1B1F20"/>
		<stop  offset="0.0758" style="stop-color:#0D0F0F"/>
		<stop  offset="0.1132" style="stop-color:#050606"/>
		<stop  offset="0.1635" style="stop-color:#030303"/>
		<stop  offset="0.5329" style="stop-color:#030303"/>
	</linearGradient>
	<path class="st0" d="M171.48,247.8c1.27-2.46,3.01-4.85,5.36-7.02c14.37-13.3,65.12-60.69,65.12-60.69s23.27-22.94,24.32-49.38l0,0
		c-11.75-2.1-23.98-3.95-36.69-5.52h0c-11.53,24.36-50.31,42.98-50.31,42.98L27.79,229.01c0,0-10.85,3.97-18.34,14.68
		c-0.88,1.26-1.59,2.65-2.16,4.13h164.18L171.48,247.8z"/>
	<linearGradient id="SVGID_2_" gradientUnits="userSpaceOnUse" x1="253.5661" y1="428.3327" x2="253.5661" y2="498.8636">
		<stop  offset="0" style="stop-color:#121416"/>
		<stop  offset="0.49" style="stop-color:#1B2121"/>
	</linearGradient>
	<path class="st1" d="M201.05,477.57h190.24c-25.88-22.26-59.54-47.2-97.36-65.46H115.84c16.61,6.92,23.7,12.49,23.7,12.49
		C161.96,438.69,182.71,457.54,201.05,477.57z"/>
	<linearGradient id="SVGID_3_" gradientUnits="userSpaceOnUse" x1="322.9489" y1="493.9979" x2="322.9489" y2="598.7592">
		<stop  offset="0.0883" style="stop-color:#1B2121"/>
		<stop  offset="0.9639" style="stop-color:#293234"/>
	</linearGradient>
	<path class="st2" d="M391.29,477.57H201.05c49.74,54.3,81.83,117.24,81.83,117.24c58.86-9.4,94.19-16.44,94.19-16.44
		c17.23-3.52,32.99-12.17,45.21-24.82c0,0,22.55-23.35,22.55-23.35C444.84,530.19,424.45,506.09,391.29,477.57z"/>
	<linearGradient id="SVGID_4_" gradientUnits="userSpaceOnUse" x1="168.7626" y1="370.3031" x2="168.7626" y2="443.5025">
		<stop  offset="0.154" style="stop-color:#363F41"/>
		<stop  offset="0.3002" style="stop-color:#282F31"/>
		<stop  offset="0.5707" style="stop-color:#121416"/>
	</linearGradient>
	<path class="st3" d="M255.26,396.55c0,0-25.74-5.57-42.19-15.5c0,0,0,0,0,0H43.63c3.93,3.97,6.94,5.95,6.94,5.95
		s5.27,5.96,40.13,16.28c10.07,2.98,18.39,6.02,25.15,8.83h176.75h1.31C281.42,406.09,268.5,400.78,255.26,396.55z"/>
	<linearGradient id="SVGID_5_" gradientUnits="userSpaceOnUse" x1="109.114" y1="222.0251" x2="109.114" y2="323.8546">
		<stop  offset="0.0919" style="stop-color:#030303"/>
		<stop  offset="0.1817" style="stop-color:#101212"/>
		<stop  offset="0.3626" style="stop-color:#252B2C"/>
		<stop  offset="0.5262" style="stop-color:#323A3C"/>
		<stop  offset="0.6564" style="stop-color:#363F41"/>
	</linearGradient>
	<path class="st4" d="M202.14,371.6c-10.78-15.79-16.28-39.18-16.28-39.18l-15.13-57.25c0,0-5.76-14.75,0.75-27.36h-0.01h-0.39H7.29
		c0,0,0,0,0-0.01h0c-4.32,11.1-0.75,27.06-0.75,27.06s14.9,56.64,21.1,78.88c3.57,12.82,10.64,21.9,15.99,27.3h169.44
		C208.42,378.24,204.51,375.08,202.14,371.6z"/>
</g>
</svg>
