<?xml version="1.0" encoding="utf-8"?>
<!-- Generator: Adobe Illustrator 24.2.3, SVG Export Plug-In . SVG Version: 6.00 Build 0)  -->
<svg version="1.1" id="Layer_1" xmlns="http://www.w3.org/2000/svg" xmlns:xlink="http://www.w3.org/1999/xlink" x="0px" y="0px"
	 viewBox="0 0 450 720" style="enable-background:new 0 0 450 720;" xml:space="preserve">
<style type="text/css">
	.st0{fill:url(#SVGID_1_);}
	.st1{fill:url(#SVGID_2_);}
	.st2{fill:url(#SVGID_3_);}
	.st3{fill:url(#SVGID_4_);}
	.st4{fill:url(#SVGID_5_);}
</style>
<linearGradient id="SVGID_1_" gradientUnits="userSpaceOnUse" x1="7468.6025" y1="410.5751" x2="7468.6025" y2="481.106" gradientTransform="matrix(-1 0 0 1 7665.0366 0)">
	<stop  offset="0" style="stop-color:#121416"/>
	<stop  offset="0.49" style="stop-color:#1B2121"/>
</linearGradient>
<path class="st0" d="M248.95,459.81H58.71c25.88-22.26,59.54-47.2,97.36-65.46h178.09c-16.61,6.92-23.7,12.49-23.7,12.49
	C288.04,420.93,267.29,439.79,248.95,459.81z"/>
<linearGradient id="SVGID_2_" gradientUnits="userSpaceOnUse" x1="7537.9854" y1="476.2403" x2="7537.9854" y2="581.0016" gradientTransform="matrix(-1 0 0 1 7665.0366 0)">
	<stop  offset="0.0883" style="stop-color:#1B2121"/>
	<stop  offset="0.9639" style="stop-color:#293234"/>
</linearGradient>
<path class="st1" d="M58.71,459.81h190.24c-49.74,54.3-81.83,117.23-81.83,117.24c-58.86-9.4-94.19-16.44-94.19-16.44
	c-17.23-3.52-32.99-12.17-45.21-24.82c0,0-22.55-23.35-22.55-23.35C5.16,512.44,25.55,488.33,58.71,459.81z"/>
<linearGradient id="SVGID_3_" gradientUnits="userSpaceOnUse" x1="7383.7993" y1="352.5455" x2="7383.7993" y2="425.7449" gradientTransform="matrix(-1 0 0 1 7665.0366 0)">
	<stop  offset="0.154" style="stop-color:#363F41"/>
	<stop  offset="0.3002" style="stop-color:#282F31"/>
	<stop  offset="0.5707" style="stop-color:#121416"/>
</linearGradient>
<path class="st2" d="M194.74,378.79c0,0,25.74-5.57,42.19-15.5c0,0,0,0,0,0h169.44c-3.93,3.97-6.94,5.95-6.94,5.95
	s-5.27,5.96-40.13,16.28c-10.07,2.98-18.39,6.02-25.15,8.83H157.41h-1.31C168.58,388.33,181.5,383.02,194.74,378.79z"/>
<linearGradient id="SVGID_4_" gradientUnits="userSpaceOnUse" x1="340.8859" y1="204.2753" x2="340.8859" y2="306.0999">
	<stop  offset="0.0919" style="stop-color:#030303"/>
	<stop  offset="0.1817" style="stop-color:#101212"/>
	<stop  offset="0.3626" style="stop-color:#252B2C"/>
	<stop  offset="0.5262" style="stop-color:#323A3C"/>
	<stop  offset="0.6564" style="stop-color:#363F41"/>
</linearGradient>
<path class="st3" d="M442.71,230.06L442.71,230.06L442.71,230.06l-163.78,0h-0.39h-0.01c6.52,12.61,0.75,27.36,0.75,27.36
	l-15.13,57.25c0,0-5.5,23.39-16.28,39.18c-2.38,3.48-6.29,6.64-10.94,9.45h169.44c5.35-5.4,12.42-14.48,15.99-27.3
	c6.19-22.24,21.1-78.88,21.1-78.88S447.02,241.16,442.71,230.06z"/>
<linearGradient id="SVGID_5_" gradientUnits="userSpaceOnUse" x1="313.2163" y1="241.8926" x2="313.2163" y2="-17.1007">
	<stop  offset="0" style="stop-color:#363F41"/>
	<stop  offset="0.0118" style="stop-color:#2D3436"/>
	<stop  offset="0.0425" style="stop-color:#1B1F20"/>
	<stop  offset="0.0758" style="stop-color:#0D0F0F"/>
	<stop  offset="0.1132" style="stop-color:#050606"/>
	<stop  offset="0.1635" style="stop-color:#030303"/>
	<stop  offset="0.5329" style="stop-color:#030303"/>
</linearGradient>
<path class="st4" d="M442.71,230.06c-0.57-1.48-1.28-2.87-2.16-4.13c-7.49-10.7-18.34-14.68-18.34-14.68l-151.49-60.84
	c0,0-38.78-18.61-50.31-42.98h0c-12.71,1.56-24.94,3.42-36.69,5.52l0,0c1.05,26.44,24.32,49.38,24.32,49.38s50.75,47.39,65.12,60.69
	c2.35,2.17,4.08,4.56,5.36,7.02l0.01,0.01h0.04v0H442.71z"/>
</svg>
